<svg width="182" height="120" viewBox="0 0 182 120" fill="none" xmlns="http://www.w3.org/2000/svg"><g clip-path="url(#clip0)"><path d="M176.885 36.379c-5.379-2.032-10.054-3.764-15.483-5.444V13.799C158.524 12.118 132.497 0 92.182 0 51.864 0 25.85 12.168 22.972 13.799V24.21C19.454 25.365 7.893 29.229 0 32.678v68.367s17.594-9.835 26.19-13.51a33.439 33.439 0 0018.223 15.053l47.756 17.437 47.756-17.437c13.057-4.767 21.062-14.877 21.364-27.234v-.564c3.356 1.066 7.239 2.421 10.959 3.763a5.11 5.11 0 004.549-.477l5.102-3.299V43.68l-5.014-7.301z" fill="white"/><path d="M116.424 54.957v5.934a372.926 372.926 0 00-13.485-1.092V24.913c2.84.15 4.26.239 7.101.477v28.953c2.563.213 3.833.338 6.384.614zM157.092 34.221v34.886c-1.659-.489-2.778-.815-4.437-1.254a3.167 3.167 0 01-2.513-2.446l-4.361-16.785-.553-.125v17.399a231.446 231.446 0 00-5.844-1.33V29.68c2.664.565 4.298.94 6.95 1.593l4.449 16.797.553.15V32.616c2.224.565 3.519.929 5.756 1.606z" fill="#002856"/><path d="M157.092 16.521S131.957 4.278 92.182 4.278c-39.776 0-64.924 12.243-64.924 12.243v13.172a356.78 356.78 0 0110.896-2.898v-6.097a164.387 164.387 0 0154.04-8.718 164.347 164.347 0 0154.039 8.781v6.097c3.645.903 7.289 1.881 10.896 2.897l-.037-13.234z" fill="#758592"/><path d="M163.375 79.92h-.729v-.489h1.986v.49h-.729v1.894h-.528V79.92zM165.021 79.431h.566l.628 1.016.629-1.016h.565v2.384h-.528v-1.53l-.666 1.028-.666-1.016v1.543h-.515l-.013-2.409zM174.686 40.017a404.257 404.257 0 00-14.063-4.83v34.886a269.07 269.07 0 0111.989 4.065c1.734.64 2.401.551 3.431-.113l2.35-1.506V45.298l-3.707-5.281zm-3.406 26.142c0 1.08-.566 1.38-1.772.954l-1.722-.627v-22.38c0-.677.365-.916 1.119-.64s2.425.878 2.425.878l-.05 21.815zM132.862 28.426c-3.431-.64-5.291-.954-8.722-1.455-1.357-.201-2.036.3-2.187 1.442l-3.544 25.955v6.723c2.514.301 3.858.477 6.397.866v-4.892c0-.991.503-1.43 1.621-1.255 1.119.176 3.042.502 3.042.502v6.41c2.827.49 4.323.765 7.138 1.342v-7.288c-1.244-9.634-2.501-18.729-3.745-28.35zm-5.153 22.203l-2.626-.451c.494-4.817.976-9.639 1.445-14.464l.993.15c.439 4.617.879 9.183 1.332 13.8.063.765-.264 1.103-1.144.965zM72.061 46.076c0-.878.478-1.368 1.495-1.443l2.062-.125V60.1c2.387-.175 4.775-.288 7.188-.389V43.706l-2.312-2.183 2.312-2.358V28.689a198.01 198.01 0 00-3.92-3.6c-4.626.293-9.234.677-13.825 1.154v34.848c2.338-.276 4.683-.514 7.038-.715l-.038-14.3zm0-14.125c0-.64.402-.954 1.156-1.004.754-.05 2.4-.15 2.4-.15v7.4c0 .603-.427.942-1.18 1.004l-2.376.15v-7.4zM41.472 59.16c-2.802.614-4.336.99-7.113 1.693v-9.935a1.642 1.642 0 011.47-1.694l4.21-1.003v-5.407c-2.211.514-3.468.816-5.68 1.38v-5.82a1.253 1.253 0 011.144-1.255l5.97-1.367v-5.558a422.92 422.92 0 00-14.214 3.676v34.924a251.473 251.473 0 0114.213-3.663V59.16zM100.627 30.684v-5.821a232.08 232.08 0 00-15.634-.113v5.82l3.091-.062c.805 0 1.17.339 1.17 1.029v28.037h7.112V30.558c1.66.038 2.564.063 4.261.126zM50.445 58.206c0-.878.465-1.417 1.483-1.58l3.18-.515v6.373c2.375-.39 4.75-.728 7.138-1.041v-6.661l-3.77-27.673c-3.431.489-5.329.79-8.797 1.404a2.352 2.352 0 00-2.175 2.158L44.048 57.78v6.786c2.128-.451 4.26-.87 6.397-1.254v-5.106zm1.697-21.69c.39-.075.628-.1 1.018-.162.44 4.465.88 8.944 1.332 13.41.075.702-.277 1.104-1.106 1.254l-2.652.414c.47-4.96.939-9.93 1.408-14.915zM11.738 54.543a2.067 2.067 0 011.609-2.057c1.093-.401 2.865-.991 2.865-.991v20.773a374.505 374.505 0 017.54-2.42V28.613c-2.827.89-4.687 1.505-7.54 2.509v13.146a1.629 1.629 0 01-1.257 1.619l-3.204 1.116V32.615c-2.803 1.017-4.726 1.77-7.54 2.886v41.133c2.513-.979 5.026-1.911 7.54-2.797l-.013-19.294z" fill="#002856"/><path d="M96.366 63.186c-31.77-.263-62.773 6.51-92.13 18.478V92.83c10.443-5.833 42.816-22.392 92.13-26.344v-3.299z" fill="#758592"/><path d="M30.425 85.791a29.01 29.01 0 0015.571 12.306l46.185 16.81 46.198-16.81c10.242-3.763 17.28-11.29 18.524-20.986.124-1.029.187-2.063.189-3.099v-.79c-10.343-1.719-68.354-10.5-126.667 12.57zm61.756 19.043L50.005 89.479l-5.404-1.957s1.483-.539 3.934-1.354a394.026 394.026 0 0156.49 13.987l-12.844 4.679zm42.189-15.355l-13.548 4.93A480.229 480.229 0 0061.09 82.367a163.66 163.66 0 016.057-1.543c9.237-.1 42.239 2.032 71.006 6.862a23.406 23.406 0 01-3.783 1.793zm9.953-7.69c-24.33-4.001-56.553-4.377-56.553-4.377s2.011-.766 3.393-1.18a321.625 321.625 0 0154.844.891 13.923 13.923 0 01-1.684 4.667z" fill="#007853"/></g><defs><clipPath id="clip0"><path fill="white" d="M0 0h182v120H0z"/></clipPath></defs></svg>